# xmcd
#
# Track frame offsets:
#	150
#	19258
#	33060
#
# Disc length: 691 seconds
# Revision: 0
# Processed by: cddbd v1.5.2PL0 Copyright (c) Steve Scherf et al.
# Submitted via: dBpowerAMP V12.0
#
DISCID=1702b103
DTITLE=Kelly Rowland - Stole
DYEAR=2002
DGENRE=Rock
TTITLE0=Stole (5am Remix)
TTITLE1=Stole (H&D Nu Soul Mix)
TTITLE2=Stole (The Gladiator Remix)
EXTD=
EXTT0=
EXTT1=
EXTT2=
PLAYORDER=
